<svg width="40" height="40" viewBox="0 0 40 40" fill="none" xmlns="http://www.w3.org/2000/svg">
<path d="M24.4516 30.1018C23.0137 30.1018 21.7885 29.6276 20.7762 28.6792C19.7638 27.7308 19.2577 26.5792 19.2577 25.2243C19.2577 23.8695 19.7609 22.7151 20.7675 21.7612C21.774 20.8074 22.9962 20.3304 24.4342 20.3304C25.8721 20.3304 27.0972 20.8046 28.1095 21.753C29.1219 22.7014 29.6282 23.8694 29.6282 25.2243C29.6282 26.5791 29.1248 27.7171 28.1182 28.671C27.1117 29.6248 25.8895 30.1018 24.4516 30.1018ZM22.591 18.9345V14.7468H26.2947V18.9345H22.591ZM22.591 35.6854V31.4977H26.2947V35.6854H22.591ZM30.4429 22.0055L27.8503 19.4929L30.9984 16.5615L33.628 19.0043L30.4429 22.0055ZM17.8873 33.8358L15.2947 31.393L18.4429 28.4267L21.0354 30.8695L17.8873 33.8358ZM31.1095 26.961V23.4712H35.554V26.961H31.1095ZM13.3317 26.961V23.4712H17.7762V26.961H13.3317ZM31.0354 33.8358L27.8873 30.8695L30.5169 28.3918L33.628 31.3581L31.0354 33.8358ZM18.4058 22.0055L15.2947 19.0392L17.8873 16.5615L21.0354 19.5278L18.4058 22.0055ZM7.85026 31.2883C6.54162 31.2883 5.43668 30.8637 4.53545 30.0145C3.63421 29.1654 3.18359 28.1242 3.18359 26.8912V8.186C3.18359 6.95295 3.63421 5.91183 4.53545 5.06266C5.43668 4.21348 6.54162 3.78889 7.85026 3.78889H8.8873V0.99707H12.7021V3.78889H22.8503V0.99707H26.6651V3.78889H27.7021C29.0108 3.78889 30.1157 4.21348 31.0169 5.06266C31.9182 5.91183 32.3688 6.95295 32.3688 8.186V13.3509H7.85026V26.8912H11.8503V31.2883H7.85026Z" fill="white"/>
<circle cx="24.9991" cy="26.6666" r="12.4444" fill="#005568"/>
<path d="M23.7375 34.6953H26.2034V33.4336C27.121 33.2616 27.9334 32.8888 28.6407 32.3154C29.348 31.7419 29.7016 30.8339 29.7016 29.5913C29.7016 28.7311 29.4627 27.9426 28.9848 27.2258C28.5069 26.5089 27.5511 25.902 26.1174 25.405C24.9896 25.0226 24.2249 24.6881 23.8235 24.4014C23.4221 24.1146 23.2214 23.7514 23.2214 23.3118C23.2214 22.9295 23.3743 22.6284 23.6801 22.4085C23.986 22.1887 24.3874 22.0788 24.8844 22.0788C25.4579 22.0788 25.931 22.2269 26.3038 22.5232C26.6766 22.8195 26.9394 23.2162 27.0923 23.7132L29.3289 22.7956C29.0804 21.9737 28.6885 21.3094 28.1533 20.8028C27.618 20.2962 26.9872 19.9952 26.2608 19.8996V18.6379H23.7948V19.8996C22.7626 20.1481 21.9979 20.6069 21.5009 21.2759C21.0039 21.945 20.7554 22.6714 20.7554 23.4551C20.7554 24.4301 21.0517 25.2234 21.6443 25.8351C22.2369 26.4468 23.2214 26.9916 24.5977 27.4695C25.5535 27.7944 26.2321 28.1099 26.6335 28.4157C27.035 28.7216 27.2357 29.1134 27.2357 29.5913C27.2357 30.1457 27.0589 30.5519 26.7052 30.81C26.3516 31.068 25.8402 31.1971 25.1712 31.1971C24.5403 31.1971 24.0003 31.0059 23.5511 30.6236C23.1019 30.2413 22.7721 29.62 22.5619 28.7598L20.2679 29.6774C20.4973 30.7287 20.9322 31.5651 21.5726 32.1863C22.213 32.8076 22.9346 33.2042 23.7375 33.3763V34.6953ZM24.9991 39.1111C23.2596 39.1111 21.6347 38.7861 20.1246 38.1361C18.6144 37.4862 17.3002 36.6021 16.1819 35.4838C15.0636 34.3655 14.1795 33.0513 13.5296 31.5412C12.8797 30.031 12.5547 28.4062 12.5547 26.6666C12.5547 24.9271 12.8797 23.3022 13.5296 21.7921C14.1795 20.2819 15.0636 18.9677 16.1819 17.8494C17.3002 16.7311 18.6144 15.847 20.1246 15.1971C21.6347 14.5471 23.2596 14.2222 24.9991 14.2222C26.7387 14.2222 28.3635 14.5471 29.8737 15.1971C31.3838 15.847 32.6981 16.7311 33.8163 17.8494C34.9346 18.9677 35.8187 20.2819 36.4687 21.7921C37.1186 23.3022 37.4436 24.9271 37.4436 26.6666C37.4436 28.4062 37.1186 30.031 36.4687 31.5412C35.8187 33.0513 34.9346 34.3655 33.8163 35.4838C32.6981 36.6021 31.3838 37.4862 29.8737 38.1361C28.3635 38.7861 26.7387 39.1111 24.9991 39.1111Z" fill="white"/>
</svg>
