<svg width="40" height="35" viewBox="0 0 40 35" fill="none" xmlns="http://www.w3.org/2000/svg">
<path d="M7.16667 28.4168C5.69444 28.4168 4.45139 27.9099 3.4375 26.896C2.42361 25.8821 1.91667 24.6391 1.91667 23.1668V5.8335C1.91667 4.36127 2.42361 3.11822 3.4375 2.10433C4.45139 1.09044 5.69444 0.583496 7.16667 0.583496H32.8333C34.3056 0.583496 35.5486 1.09044 36.5625 2.10433C37.5764 3.11822 38.0833 4.36127 38.0833 5.8335V23.1668C38.0833 24.6391 37.5764 25.8821 36.5625 26.896C35.5486 27.9099 34.3056 28.4168 32.8333 28.4168H7.16667ZM0.375 34.0418V30.0835H39.625V34.0418H0.375Z" fill="white"/>
</svg>
