<svg width="38" height="38" viewBox="0 0 38 38" fill="none" xmlns="http://www.w3.org/2000/svg">
<path d="M19.0013 37.0832C16.4735 37.0832 14.1126 36.6098 11.9185 35.663C9.7244 34.7163 7.81583 33.4314 6.1928 31.8083C4.56977 30.1853 3.28489 28.2767 2.33814 26.0826C1.39136 23.8885 0.917969 21.5276 0.917969 18.9998C0.917969 16.4721 1.39136 14.1111 2.33814 11.917C3.28489 9.72293 4.56977 7.81437 6.1928 6.19134C7.81583 4.56831 9.7244 3.28342 11.9185 2.33667C14.1126 1.38989 16.4735 0.916504 19.0013 0.916504C21.5291 0.916504 23.89 1.38989 26.0841 2.33667C28.2782 3.28342 30.1868 4.56831 31.8098 6.19134C33.4328 7.81437 34.7177 9.72293 35.6645 11.917C36.6112 14.1111 37.0846 16.4721 37.0846 18.9998C37.0846 21.5276 36.6112 23.8885 35.6645 26.0826C34.7177 28.2767 33.4328 30.1853 31.8098 31.8083C30.1868 33.4314 28.2782 34.7163 26.0841 35.663C23.89 36.6098 21.5291 37.0832 19.0013 37.0832ZM19.0013 31.8332C22.1124 31.8332 24.8138 30.9026 27.1055 29.0415C29.3971 27.1804 30.8624 24.8193 31.5013 21.9582C31.168 22.2915 30.7791 22.5484 30.3346 22.729C29.8902 22.9096 29.4041 22.9998 28.8763 22.9998H25.8346C24.7805 22.9998 23.878 22.6245 23.1273 21.8738C22.3767 21.1231 22.0013 20.2207 22.0013 19.1665V17.2498H14.3346V13.7498C14.3346 12.6842 14.71 11.772 15.4607 11.0131C16.2114 10.2543 17.1138 9.87484 18.168 9.87484H20.0846C20.0846 9.0597 20.293 8.34203 20.7096 7.72184C21.1263 7.10162 21.6402 6.72206 22.2513 6.58317C21.7231 6.45692 21.1882 6.35591 20.6468 6.28013C20.1054 6.20438 19.5569 6.1665 19.0013 6.1665C15.3902 6.1665 12.3485 7.40262 9.8763 9.87484C7.40408 12.3471 6.16797 15.3887 6.16797 18.9998C6.16797 19.1387 6.17491 19.2776 6.1888 19.4165C6.20269 19.5554 6.20964 19.6943 6.20964 19.8332H12.0013C14.1402 19.8332 15.9527 20.5762 17.4388 22.0623C18.9249 23.5484 19.668 25.3552 19.668 27.4825V29.4165H13.918V30.7915C14.6957 31.1248 15.5089 31.3818 16.3576 31.5623C17.2062 31.7429 18.0874 31.8332 19.0013 31.8332Z" fill="white"/>
</svg>
