<svg width="35" height="35" viewBox="0 0 35 35" fill="none" xmlns="http://www.w3.org/2000/svg">
<g id="Othe Icons">
<path id="icon" d="M5.83332 17.5C5.83332 10.8735 10.8735 5.83332 17.5 5.83332C24.1265 5.83332 29.1667 10.8735 29.1667 17.5C29.1667 24.1265 24.1265 29.1667 17.5 29.1667C10.8735 29.1667 5.83332 24.1265 5.83332 17.5ZM2.91666 17.5C2.91666 25.5592 9.44078 32.0833 17.5 32.0833C25.5592 32.0833 32.0833 25.5592 32.0833 17.5C32.0833 9.44078 25.5592 2.91666 17.5 2.91666C9.44078 2.91666 2.91666 9.44078 2.91666 17.5ZM23.3333 14.5833C23.3333 11.3596 20.7237 8.74999 17.5 8.74999C14.2763 8.74999 11.6667 11.3596 11.6667 14.5833C11.6667 17.807 14.2763 20.4167 17.5 20.4167C20.7237 20.4167 23.3333 17.807 23.3333 14.5833ZM29.3713 25.9686C27.3246 23.5124 22.7449 21.875 17.5 21.875C12.2551 21.875 7.67543 23.5124 5.62864 25.9686C8.23829 29.6272 12.5877 32.0833 17.5 32.0833C22.4123 32.0833 26.7617 29.6272 29.3713 25.9686Z" fill="white"/>
</g>
</svg>
