<svg width="22" height="22" viewBox="0 0 24 25" fill="none" xmlns="http://www.w3.org/2000/svg">
<path d="M14.5 15.5039L14.5 24.2539H18.25C21.0132 24.2539 23.25 22.0171 23.25 19.2539V12.061C23.25 10.7232 22.7237 9.4513 21.7807 8.53025L15.5307 2.28025C13.5789 0.306567 10.4211 0.306567 8.4693 2.28025L2.2193 8.53025C1.27632 9.4513 0.75 10.7232 0.75 12.061L0.75 19.2539C0.75 22.0171 2.98684 24.2539 5.75 24.2539H9.5L9.5 15.5039C9.5 13.9469 10.443 13.0039 12 13.0039C13.557 13.0039 14.5 13.9469 14.5 15.5039ZM15.75 21.7539L8.25 21.7539V24.2539L15.75 24.2539V21.7539Z" fill="#0377A8"/>
</svg>
