<svg width="14" height="14" viewBox="0 0 14 14" fill="none" xmlns="http://www.w3.org/2000/svg">
<path d="M0.333252 3.00016C0.333252 3.36274 0.637345 3.66683 0.999919 3.66683H1.66659V11.0002C1.66659 12.4972 2.83618 13.6668 4.33325 13.6668H9.66658C11.1637 13.6668 12.3333 12.4972 12.3333 11.0002V3.66683H12.9999C13.3625 3.66683 13.6666 3.36274 13.6666 3.00016C13.6666 2.63759 13.3625 2.3335 12.9999 2.3335H12.3333H11.6666H2.33325H1.66659H0.999919C0.637345 2.3335 0.333252 2.63759 0.333252 3.00016ZM4.33325 1.00016C4.33325 1.36274 4.63735 1.66683 4.99992 1.66683H8.99992C9.36249 1.66683 9.66658 1.36274 9.66658 1.00016C9.66658 0.637589 9.36249 0.333496 8.99992 0.333496H4.99992C4.63735 0.333496 4.33325 0.637589 4.33325 1.00016ZM4.99992 10.3335V5.66683C4.99992 5.30426 5.30401 5.00016 5.66658 5.00016C6.02916 5.00016 6.33325 5.30426 6.33325 5.66683V10.3335C6.33325 10.6961 6.02916 11.0002 5.66658 11.0002C5.30401 11.0002 4.99992 10.6961 4.99992 10.3335ZM7.66658 10.3335V5.66683C7.66658 5.30426 7.97068 5.00016 8.33325 5.00016C8.69582 5.00016 8.99992 5.30426 8.99992 5.66683V10.3335C8.99992 10.6961 8.69582 11.0002 8.33325 11.0002C7.97068 11.0002 7.66658 10.6961 7.66658 10.3335Z" fill="#C9CACC"/>
</svg>
