<svg width="20" height="20" viewBox="0 0 20 20" fill="none" xmlns="http://www.w3.org/2000/svg">
<path d="M0 4C0 4.54386 0.45614 5 1 5H2V16C2 18.2456 3.75439 20 6 20H14C16.2456 20 18 18.2456 18 16V5H19C19.5439 5 20 4.54386 20 4C20 3.45614 19.5439 3 19 3H18H17H3H2H1C0.45614 3 0 3.45614 0 4ZM6 1C6 1.54386 6.45614 2 7 2H13C13.5439 2 14 1.54386 14 1C14 0.45614 13.5439 0 13 0H7C6.45614 0 6 0.45614 6 1ZM7 15V8C7 7.45614 7.45614 7 8 7C8.54386 7 9 7.45614 9 8V15C9 15.5439 8.54386 16 8 16C7.45614 16 7 15.5439 7 15ZM11 15V8C11 7.45614 11.4561 7 12 7C12.5439 7 13 7.45614 13 8V15C13 15.5439 12.5439 16 12 16C11.4561 16 11 15.5439 11 15Z" fill="#005568"/>
</svg>
