<svg width="21" height="21" viewBox="0 0 21 21" fill="none" xmlns="http://www.w3.org/2000/svg">
<path d="M19.1424 3.29424L17.6656 1.81753C17.0657 1.21665 16.2521 0.879883 15.4032 0.879883H3.08005C1.86482 0.879883 0.880005 1.8647 0.880005 3.07993V17.8798C0.880005 19.0951 1.86482 20.0799 3.08005 20.0799H17.88C19.0952 20.0799 20.08 19.0951 20.08 17.8798V5.55669C20.08 4.70781 19.7432 3.89424 19.1424 3.29424ZM4.07996 5.87983V3.87988C4.07996 3.54868 4.34876 3.27988 4.67996 3.27988H13.08C13.4112 3.27988 13.68 3.54868 13.68 3.87988V5.87983C13.68 6.21104 13.4112 6.47983 13.08 6.47983H4.67996C4.34876 6.47983 4.07996 6.21104 4.07996 5.87983ZM10.48 16.8799C8.49207 16.8799 6.88 15.2679 6.88 13.2799C6.88 11.2918 8.49207 9.67993 10.48 9.67993C12.4679 9.67993 14.08 11.2918 14.08 13.2799C14.08 15.2679 12.4679 16.8799 10.48 16.8799Z" fill="#005568"/>
</svg>
