<svg width="41" height="40" viewBox="0 0 41 40" fill="#005568" xmlns="http://www.w3.org/2000/svg">
<path d="M20.7107 25.9155C19.7063 25.9155 18.8643 26.779 18.8643 27.8092C18.8643 28.8393 19.7063 29.7028 20.7107 29.7028C21.6783 29.7028 22.5572 28.8393 22.5129 27.8546C22.5572 26.7715 21.7226 25.9155 20.7107 25.9155Z" fill="#005568"/>
<path d="M37.8011 32.6273C38.9607 30.5746 38.9681 28.128 37.8159 26.0828L26.2495 5.54055C25.1047 3.47269 23.0366 2.24561 20.7175 2.24561C18.3983 2.24561 16.3302 3.48026 15.1854 5.53298L3.60426 26.098C2.45205 28.1659 2.45944 30.6276 3.62641 32.6803C4.77862 34.7103 6.83929 35.9298 9.1437 35.9298H32.2469C34.5587 35.9298 36.6341 34.6952 37.8011 32.6273ZM35.2899 31.1427C34.6473 32.2789 33.5099 32.953 32.2395 32.953H9.13632C7.88071 32.953 6.75066 32.294 6.12286 31.1805C5.48767 30.0519 5.48028 28.7037 6.11547 27.5675L17.6966 7.01002C18.3244 5.88141 19.4471 5.21485 20.7175 5.21485C21.9805 5.21485 23.1105 5.88898 23.7383 7.0176L35.3121 27.575C35.9325 28.6809 35.9251 30.0141 35.2899 31.1427Z" fill="#005568"/>
<path d="M20.2517 12.6223C19.3727 12.8798 18.8262 13.6979 18.8262 14.6902C18.8705 15.2886 18.9074 15.8945 18.9517 16.4929C19.0773 18.7729 19.2029 21.0074 19.3284 23.2873C19.3727 24.0599 19.9562 24.6205 20.7096 24.6205C21.4629 24.6205 22.0538 24.0221 22.0908 23.2419C22.0908 22.7723 22.0908 22.3405 22.1351 21.8633C22.2163 20.4014 22.3049 18.9395 22.3862 17.4776C22.4305 16.5308 22.5118 15.584 22.5561 14.6371C22.5561 14.2963 22.5118 13.9933 22.3862 13.6903C22.0095 12.842 21.1306 12.4102 20.2517 12.6223Z" fill="#005568"/>
</svg>
