<svg width="16" height="16" viewBox="0 0 16 16" fill="none" xmlns="http://www.w3.org/2000/svg">
<path d="M0.298245 1.70175L14.2982 15.7018C14.4737 15.8947 14.7193 16 15 16C15.5439 16 16 15.5439 16 15C16 14.7193 15.8947 14.4737 15.7018 14.2982L1.70175 0.298245C1.52632 0.105263 1.2807 0 1 0C0.456141 0 0 0.45614 0 0.999999C0 1.2807 0.105263 1.52632 0.298245 1.70175ZM14.2982 0.298245L0.298245 14.2982C0.105263 14.4737 0 14.7193 0 15C0 15.5439 0.456141 16 1 16C1.2807 16 1.52632 15.8947 1.70175 15.7018L15.7018 1.70175C15.8947 1.52632 16 1.2807 16 0.999999C16 0.45614 15.5439 0 15 0C14.7193 0 14.4737 0.105263 14.2982 0.298245Z" fill="#005568"/>
</svg>
