<svg width="80" height="80" viewBox="0 0 80 80" fill="none" xmlns="http://www.w3.org/2000/svg">
<g clip-path="url(#clip0_3119_759)">
<path d="M29.7021 52.5014C29.6061 51.8528 29.0008 51.4046 28.3542 51.5013L2.83307 55.2821C2.82026 55.2846 2.79921 55.2702 2.79699 55.2552L2.37416 52.4021C2.37147 52.3846 2.38382 52.3682 2.40107 52.3657L27.9228 48.5847C28.5713 48.4888 29.0192 47.8851 28.9229 47.2368C28.8269 46.5881 28.2218 46.14 27.575 46.2367L20.2714 47.3186C20.6026 46.7878 20.8464 46.1976 20.9828 45.5673C22.7324 45.4301 24.1148 43.9654 24.1148 42.181V41.7715C24.1148 40.2324 23.0862 38.9308 21.6809 38.5134V36.8629L24.7899 31.3775C25.1132 30.8071 24.9128 30.0829 24.3427 29.7597C23.7724 29.4364 23.0481 29.6368 22.725 30.2069L19.59 35.7376C19.4048 36.0644 19.307 36.4359 19.307 36.8116V38.3714H10.3448V36.8116C10.3448 36.4359 10.247 36.0644 10.0616 35.7371L5.50662 27.7006C5.5033 27.6945 5.49998 27.6883 5.49666 27.6821C4.63327 26.1145 4.17911 24.334 4.18291 22.533C4.19556 16.7161 8.93754 11.9524 14.7535 11.9138C14.778 11.9136 14.8023 11.9135 14.8268 11.9135C17.6567 11.9135 20.3179 13.0101 22.327 15.0056C24.3536 17.0186 25.4696 19.7004 25.4696 22.5567C25.4696 23.7038 25.2879 24.8328 24.9293 25.9121C24.7226 26.5342 25.0594 27.206 25.6814 27.4125C26.3046 27.6195 26.9754 27.2824 27.1818 26.6603C27.6206 25.339 27.8432 23.9585 27.8432 22.5566C27.8432 19.0633 26.4782 15.7834 23.9998 13.3214C21.5427 10.8806 18.2882 9.53979 14.8274 9.53979C14.7977 9.53979 14.7676 9.53995 14.7379 9.54011C7.62458 9.58743 1.82474 15.4137 1.80939 22.5278C1.80464 24.7172 2.35422 26.8828 3.39928 28.7938C3.40719 28.8095 3.41557 28.8246 3.42412 28.84L7.97129 36.8629V38.5134C6.56608 38.9307 5.53732 40.2324 5.53732 41.7715V42.181C5.53732 43.9706 6.92814 45.4382 8.68498 45.5681C8.96159 46.8445 9.67907 47.9576 10.6697 48.7409L2.05308 50.0173C0.741233 50.2118 -0.168043 51.4376 0.0261234 52.7497L0.448954 55.6029C0.54311 56.2385 0.879064 56.7995 1.3951 57.1822C1.81398 57.4931 2.31087 57.6564 2.82311 57.6564C2.94179 57.6564 3.06142 57.6476 3.1809 57.6298L28.702 53.8489C29.3505 53.7533 29.7984 53.1496 29.7021 52.5014ZM11.1652 45.5809H18.5028C18.032 46.7407 16.8949 47.5615 15.5682 47.5615H14.1C12.7729 47.5615 11.6359 46.7407 11.1652 45.5809ZM7.91084 42.1812V41.7716C7.91084 41.2059 8.37102 40.7456 8.93674 40.7456H20.7154C21.2811 40.7456 21.7413 41.2059 21.7413 41.7716V42.1812C21.7413 42.7469 21.2811 43.2072 20.7154 43.2072H8.9369C8.37118 43.2072 7.91084 42.7469 7.91084 42.1812Z" fill="#049FD9"/>
<path d="M79.974 43.8216L79.5513 40.9679C79.3569 39.6559 78.1292 38.7465 76.8191 38.9411L70.0182 39.9487C70.7341 39.2166 71.2488 38.2879 71.4734 37.2517C73.2304 37.1219 74.6211 35.6544 74.6211 33.8648V33.4551C74.6211 31.9162 73.5925 30.6146 72.1871 30.1971V28.5466L76.7343 20.5238C76.743 20.5084 76.7512 20.4932 76.7591 20.4776C77.8041 18.5669 78.3537 16.401 78.349 14.2115C78.3333 7.09748 72.5336 1.27121 65.4205 1.22374C61.9228 1.19842 58.6369 2.5435 56.1586 5.00516C53.6802 7.4673 52.3151 10.7471 52.3151 14.2403C52.3151 16.1328 52.7141 17.9599 53.5009 19.6708C53.775 20.2663 54.4793 20.5273 55.0751 20.2533C55.6706 19.9794 55.9314 19.2746 55.6576 18.6791C55.0146 17.2813 54.6888 15.788 54.6888 14.2403C54.6888 11.384 55.8049 8.70224 57.8314 6.68921C59.8577 4.67617 62.5424 3.57779 65.4047 3.59726C71.2205 3.63603 75.9625 8.39999 75.9753 14.2166C75.9791 16.0176 75.5249 17.7982 74.6616 19.3657C74.6582 19.3719 74.6548 19.3781 74.6516 19.3843L70.0967 27.4207C69.9114 27.7475 69.8134 28.1191 69.8134 28.4951V30.055H60.8507V28.4951C60.8507 28.1191 60.7528 27.7475 60.5675 27.4207L58.0683 23.0117C57.7453 22.4416 57.021 22.2412 56.4506 22.5645C55.8802 22.8876 55.6801 23.6119 56.0034 24.1823L58.477 28.5465V30.197C57.0718 30.6143 56.0431 31.916 56.0431 33.4549V33.8646C56.0431 35.6488 57.4255 37.1134 59.1751 37.2508C59.5449 38.959 60.7043 40.3758 62.2512 41.0993L51.2976 42.7219C50.6493 42.8178 50.2015 43.4215 50.2977 44.0699C50.3937 44.7185 50.9987 45.1667 51.6456 45.07L77.1669 41.289C77.1834 41.2852 77.2004 41.2987 77.2031 41.3158L77.6258 44.1691C77.6285 44.1865 77.6162 44.2029 77.5989 44.2055L52.0771 47.9864C51.4287 48.0823 50.9808 48.686 51.077 49.3344C51.1644 49.924 51.6709 50.3474 52.2495 50.3474C52.3074 50.3474 52.3659 50.3433 52.4248 50.3345L77.9469 46.5535C79.2591 46.3592 80.1683 45.1336 79.974 43.8216ZM61.6557 37.2645H68.9934C68.5226 38.4243 67.3855 39.2453 66.0587 39.2453H64.5905C63.2636 39.2451 62.1265 38.4243 61.6557 37.2645ZM58.4169 33.8648V33.4551C58.4169 32.8894 58.8771 32.4292 59.4428 32.4292H71.2215C71.7872 32.4292 72.2474 32.8894 72.2474 33.4551V33.8648C72.2474 34.4305 71.7872 34.8907 71.2215 34.8907H59.4428C58.8772 34.8909 58.4169 34.4305 58.4169 33.8648Z" fill="#049FD9"/>
<path d="M40.0001 52.2292C42.1746 52.2292 43.9436 50.4602 43.9436 48.2857C43.9436 46.1113 42.1746 44.3423 40.0001 44.3423C37.8257 44.3423 36.0566 46.1113 36.0566 48.2857C36.0566 50.4602 37.8255 52.2292 40.0001 52.2292ZM40.0001 46.716C40.8657 46.716 41.5699 47.4201 41.5699 48.2857C41.5699 49.1513 40.8657 49.8555 40.0001 49.8555C39.1345 49.8555 38.4303 49.1513 38.4303 48.2857C38.4303 47.4201 39.1345 46.716 40.0001 46.716Z" fill="#049FD9"/>
<path d="M54.5698 70.5269L51.2502 64.9294C50.916 64.3656 50.1876 64.1802 49.6241 64.5139C49.0603 64.8483 48.8744 65.5764 49.2086 66.14L51.7685 70.4566H28.2313L36.6116 56.3257C37.654 56.7665 38.799 57.0105 40 57.0105C41.2011 57.0105 42.3461 56.7665 43.3883 56.3257L46.6285 61.7894C46.8502 62.1633 47.2451 62.3711 47.6505 62.3711C47.8564 62.3711 48.0649 62.3175 48.2547 62.2049C48.8185 61.8706 49.0044 61.1425 48.6702 60.5788L45.427 55.11C47.4346 53.51 48.7251 51.0464 48.7251 48.2857C48.7251 43.4747 44.8111 39.5605 40 39.5605C35.1888 39.5605 31.2748 43.4746 31.2748 48.2857C31.2748 51.0464 32.5651 53.5102 34.573 55.11L25.4302 70.5269C23.7196 70.8624 22.4248 72.3723 22.4248 74.1797V76.8447C22.4248 77.9098 23.2914 78.7765 24.3565 78.7765H55.6436C56.7088 78.7765 57.5753 77.9098 57.5753 76.8447V74.1797C57.5751 72.3725 56.2804 70.8624 54.5698 70.5269ZM33.6485 48.2857C33.6485 44.7834 36.4977 41.9342 40 41.9342C43.5023 41.9342 46.3515 44.7834 46.3515 48.2857C46.3515 51.788 43.5023 54.6372 40 54.6372C36.4977 54.6372 33.6485 51.788 33.6485 48.2857ZM55.2015 76.403H24.7983V74.1798C24.7983 73.4365 25.4027 72.8317 26.1456 72.8306H26.1464C26.1472 72.8306 26.148 72.8305 26.1488 72.8305H53.8507C53.8515 72.8305 53.8523 72.8306 53.8531 72.8306H53.8539C54.597 72.8317 55.2012 73.4365 55.2012 74.1798V76.403H55.2015Z" fill="#049FD9"/>
<path d="M16.1958 16.2827C15.9695 15.7337 15.4404 15.3794 14.8468 15.3794C14.8462 15.3794 14.8454 15.3794 14.8447 15.3794C14.2504 15.3803 13.721 15.7362 13.4963 16.2863C13.4928 16.2952 13.4892 16.304 13.4859 16.313L8.977 28.1515C8.74359 28.7641 9.05122 29.4498 9.66379 29.6832C10.2754 29.9164 10.9619 29.6091 11.1953 28.9965L12.0272 26.8123H17.6332L18.4562 28.9931C18.6355 29.4683 19.0871 29.7612 19.5668 29.7612C19.706 29.7612 19.8476 29.7365 19.9856 29.6844C20.5988 29.4531 20.9084 28.7684 20.6769 28.155L16.2091 16.3159C16.2047 16.3047 16.2003 16.2936 16.1958 16.2827ZM12.9309 24.4386L14.8428 19.4188L16.7372 24.4386H12.9309Z" fill="#049FD9"/>
<path d="M65.7565 8.55493H62.2686C61.613 8.55493 61.0818 9.08616 61.0818 9.74177V15.2709V15.2799V21.7494C61.0818 22.0651 61.2076 22.3677 61.4312 22.5905C61.6537 22.8119 61.9548 22.9362 62.2686 22.9362H62.2739C62.2742 22.9362 65.4816 22.922 66.3656 22.922C68.8021 22.922 70.7846 20.9397 70.7846 18.503C70.7846 17.0103 70.0397 15.6889 68.9031 14.8885C69.4066 14.2255 69.7061 13.3994 69.7061 12.5047C69.7063 10.3268 67.9344 8.55493 65.7565 8.55493ZM65.7565 10.9286C66.6256 10.9286 67.3326 11.6356 67.3326 12.5047C67.3326 13.3738 66.6256 14.0808 65.7565 14.0808C65.5005 14.0808 63.4555 14.0842 63.4555 14.0842V10.9288L65.7565 10.9286ZM66.3657 20.5483C65.8345 20.5483 64.4665 20.5534 63.4555 20.5577V16.4618C63.7864 16.4605 66.3657 16.4578 66.3657 16.4578C67.4936 16.4578 68.4111 17.3754 68.4111 18.5032C68.4111 19.631 67.4936 20.5483 66.3657 20.5483Z" fill="#049FD9"/>
</g>
<defs>
<clipPath id="clip0_3119_759">
<rect width="80" height="80" fill="white"/>
</clipPath>
</defs>
</svg>
