<svg width="40" height="40" viewBox="0 0 40 40" fill="none" xmlns="http://www.w3.org/2000/svg">
<g clip-path="url(#clip0_3476_14117)">
<g clip-path="url(#clip1_3476_14117)">
<path d="M26.0184 14.4336C25.7479 14.4336 25.4885 14.5333 25.2972 14.7109C25.106 14.8884 24.9985 15.1292 24.9985 15.3802V33.2715C24.9985 33.5226 25.106 33.7633 25.2972 33.9409C25.4885 34.1184 25.7479 34.2181 26.0184 34.2181C26.2889 34.2181 26.5483 34.1184 26.7395 33.9409C26.9308 33.7633 27.0382 33.5226 27.0382 33.2715V15.3802C27.0382 15.1292 26.9308 14.8884 26.7395 14.7109C26.5483 14.5333 26.2889 14.4336 26.0184 14.4336Z" fill="#005568"/>
<path d="M13.9835 14.4336C13.713 14.4336 13.4536 14.5333 13.2623 14.7109C13.0711 14.8884 12.9636 15.1292 12.9636 15.3802V33.2715C12.9636 33.5226 13.0711 33.7633 13.2623 33.9409C13.4536 34.1184 13.713 34.2181 13.9835 34.2181C14.254 34.2181 14.5134 34.1184 14.7046 33.9409C14.8959 33.7633 15.0033 33.5226 15.0033 33.2715V15.3802C15.0033 15.1292 14.8959 14.8884 14.7046 14.7109C14.5134 14.5333 14.254 14.4336 13.9835 14.4336Z" fill="#005568"/>
<path d="M5.21122 11.8232V35.1463C5.21122 36.5246 5.75582 37.8195 6.70734 38.7482C7.17564 39.2092 7.74034 39.5766 8.36688 39.8281C8.99343 40.0796 9.66866 40.2098 10.3513 40.2107H29.6468C30.3295 40.2098 31.0047 40.0796 31.6312 39.8281C32.2578 39.5766 32.8225 39.2092 33.2908 38.7482C34.2423 37.8195 34.7869 36.5246 34.7869 35.1463V11.8232C35.701 11.5979 36.4956 11.0715 37.0225 10.3423C37.5493 9.61319 37.7723 8.73104 37.6499 7.86048C37.5276 6.98992 37.0682 6.19041 36.3575 5.6111C35.6468 5.0318 34.7333 4.71228 33.7874 4.71215H28.5658V3.52886C28.5688 3.03625 28.4663 2.548 28.2643 2.09246C28.0622 1.63693 27.7647 1.2232 27.389 0.875311C27.0132 0.527418 26.5667 0.252295 26.0754 0.0659252C25.5842 -0.120445 25.0579 -0.214346 24.5272 -0.210325H15.4709C14.9402 -0.214346 14.4139 -0.120445 13.9227 0.0659252C13.4314 0.252295 12.9849 0.527418 12.6092 0.875311C12.2334 1.2232 11.9359 1.63693 11.7338 2.09246C11.5318 2.548 11.4293 3.03625 11.4323 3.52886V4.71215H6.21068C5.26483 4.71228 4.35134 5.0318 3.64063 5.6111C2.92992 6.19041 2.47053 6.98992 2.34817 7.86048C2.22582 8.73104 2.44885 9.61319 2.97566 10.3423C3.50247 11.0715 4.29707 11.5979 5.21122 11.8232ZM29.6468 38.3175H10.3513C8.60733 38.3175 7.25093 36.9269 7.25093 35.1463V11.9065H32.7472V35.1463C32.7472 36.9269 31.3908 38.3175 29.6468 38.3175ZM13.472 3.52886C13.4687 3.28479 13.5182 3.0426 13.6176 2.81662C13.717 2.59065 13.8643 2.38551 14.0507 2.21336C14.2371 2.04121 14.4589 1.90555 14.7029 1.81444C14.9468 1.72332 15.208 1.6786 15.4709 1.68293H24.5272C24.79 1.67887 25.0511 1.72376 25.2949 1.81497C25.5388 1.90618 25.7604 2.04184 25.9468 2.21394C26.1331 2.38604 26.2804 2.59108 26.3799 2.81693C26.4794 3.04279 26.5291 3.28487 26.5261 3.52886V4.71215H13.472V3.52886ZM6.21068 6.6054H33.7874C34.2743 6.6054 34.7412 6.78492 35.0855 7.10447C35.4298 7.42402 35.6232 7.85743 35.6232 8.30934C35.6232 8.76125 35.4298 9.19465 35.0855 9.5142C34.7412 9.83375 34.2743 10.0133 33.7874 10.0133H6.21068C5.72381 10.0133 5.25689 9.83375 4.91262 9.5142C4.56835 9.19465 4.37495 8.76125 4.37495 8.30934C4.37495 7.85743 4.56835 7.42402 4.91262 7.10447C5.25689 6.78492 5.72381 6.6054 6.21068 6.6054Z" fill="#005568"/>
<path d="M19.9998 14.4336C19.7293 14.4336 19.4699 14.5333 19.2787 14.7109C19.0874 14.8884 18.98 15.1292 18.98 15.3802V33.2715C18.98 33.5226 19.0874 33.7633 19.2787 33.9409C19.4699 34.1184 19.7293 34.2181 19.9998 34.2181C20.2703 34.2181 20.5297 34.1184 20.721 33.9409C20.9122 33.7633 21.0197 33.5226 21.0197 33.2715V15.3802C21.0197 15.1292 20.9122 14.8884 20.721 14.7109C20.5297 14.5333 20.2703 14.4336 19.9998 14.4336Z" fill="#005568"/>
</g>
</g>
<defs>
<clipPath id="clip0_3476_14117">
<rect width="40" height="40" fill="white"/>
</clipPath>
<clipPath id="clip1_3476_14117">
<rect width="35.3684" height="40.4211" fill="white" transform="translate(2.31567 -0.210449)"/>
</clipPath>
</defs>
</svg>
