<svg width="80" height="80" viewBox="0 0 80 80" fill="none" xmlns="http://www.w3.org/2000/svg">
<path d="M73.3332 73.3335H6.6665" stroke="#049FD9" stroke-width="2.5" stroke-linecap="round"/>
<path d="M70 73.3335V48.3335C70 47.0074 69.4732 45.7356 68.5355 44.798C67.5978 43.8603 66.3261 43.3335 65 43.3335H55C53.6739 43.3335 52.4021 43.8603 51.4645 44.798C50.5268 45.7356 50 47.0074 50 48.3335V73.3335" stroke="#049FD9" stroke-width="2.5"/>
<path d="M50 73.3334V30.0001M30 73.3334V16.6667C30 11.9534 30 9.59675 31.4667 8.13341C32.9267 6.66675 35.2833 6.66675 40 6.66675C44.7133 6.66675 47.07 6.66675 48.5333 8.13341C50 9.59341 50 11.9501 50 16.6667" stroke="#049FD9" stroke-width="2.5" stroke-linecap="round" stroke-linejoin="round"/>
<path d="M30 73.3334V31.6667C30 30.3407 29.4732 29.0689 28.5355 28.1312C27.5979 27.1935 26.3261 26.6667 25 26.6667H15C13.6739 26.6667 12.4021 27.1935 11.4645 28.1312C10.5268 29.0689 10 30.3407 10 31.6667V53.3334M10 73.3334V65.8334" stroke="#049FD9" stroke-width="2.5" stroke-linecap="round"/>
</svg>
