<svg width="22" height="22" viewBox="0 0 22 22" fill="none" xmlns="http://www.w3.org/2000/svg">
<path d="M10.8734 17.0004C11.2901 17.0004 11.6484 16.8504 11.9484 16.5504C12.2484 16.2504 12.3984 15.8909 12.3984 15.4719C12.3984 15.0528 12.2484 14.6987 11.9484 14.4094C11.6484 14.12 11.2901 13.9754 10.8734 13.9754C10.4568 13.9754 10.0984 14.12 9.79844 14.4094C9.49844 14.6987 9.34844 15.0528 9.34844 15.4719C9.34844 15.8909 9.49844 16.2504 9.79844 16.5504C10.0984 16.8504 10.4568 17.0004 10.8734 17.0004ZM9.69844 13.1504H12.0484C12.0484 12.6671 12.1151 12.2587 12.2484 11.9254C12.3818 11.5921 12.6984 11.1837 13.1984 10.7004C13.5818 10.3337 13.8943 9.9416 14.1359 9.52402C14.3776 9.10643 14.4984 8.60444 14.4984 8.01804C14.4984 7.02294 14.1734 6.26289 13.5234 5.73789C12.8734 5.21289 12.0818 4.95039 11.1484 4.95039C10.1318 4.95039 9.28594 5.24206 8.61094 5.82539C7.93594 6.40872 7.4651 7.10039 7.19844 7.90039L9.39844 8.72539C9.5151 8.39206 9.69844 8.05872 9.94844 7.72539C10.1984 7.39206 10.5568 7.22539 11.0234 7.22539C11.3568 7.22539 11.6151 7.32956 11.7984 7.53789C11.9818 7.74622 12.0734 7.97539 12.0734 8.22539C12.0734 8.47539 11.9859 8.73372 11.8109 9.00039C11.6359 9.26706 11.4568 9.47539 11.2734 9.62539C10.6068 10.2421 10.1776 10.7462 9.98594 11.1379C9.79427 11.5296 9.69844 12.2004 9.69844 13.1504ZM10.9984 21.8504C9.48177 21.8504 8.06521 21.5664 6.74876 20.9983C5.4323 20.4302 4.28715 19.6593 3.31334 18.6855C2.33952 17.7117 1.56859 16.5665 1.00054 15.2501C0.432471 13.9336 0.148438 12.5171 0.148438 11.0004C0.148438 9.48372 0.432471 8.06717 1.00054 6.75072C1.56859 5.43425 2.33952 4.28911 3.31334 3.31529C4.28715 2.34147 5.4323 1.57054 6.74876 1.00249C8.06521 0.434424 9.48177 0.150391 10.9984 0.150391C12.5151 0.150391 13.9317 0.434424 15.2481 1.00249C16.5646 1.57054 17.7097 2.34147 18.6835 3.31529C19.6574 4.28911 20.4283 5.43425 20.9963 6.75072C21.5644 8.06717 21.8484 9.48372 21.8484 11.0004C21.8484 12.5171 21.5644 13.9336 20.9963 15.2501C20.4283 16.5665 19.6574 17.7117 18.6835 18.6855C17.7097 19.6593 16.5646 20.4302 15.2481 20.9983C13.9317 21.5664 12.5151 21.8504 10.9984 21.8504Z" fill="white"/>
</svg>
