<svg width="24" height="24" viewBox="0 0 24 24" fill="none" xmlns="http://www.w3.org/2000/svg">
<path d="M11.8734 18.0004C12.2901 18.0004 12.6484 17.8504 12.9484 17.5504C13.2484 17.2504 13.3984 16.8909 13.3984 16.4719C13.3984 16.0528 13.2484 15.6987 12.9484 15.4094C12.6484 15.12 12.2901 14.9754 11.8734 14.9754C11.4568 14.9754 11.0984 15.12 10.7984 15.4094C10.4984 15.6987 10.3484 16.0528 10.3484 16.4719C10.3484 16.8909 10.4984 17.2504 10.7984 17.5504C11.0984 17.8504 11.4568 18.0004 11.8734 18.0004ZM10.6984 14.1504H13.0484C13.0484 13.6671 13.1151 13.2587 13.2484 12.9254C13.3818 12.5921 13.6984 12.1837 14.1984 11.7004C14.5818 11.3337 14.8943 10.9416 15.1359 10.524C15.3776 10.1064 15.4984 9.60444 15.4984 9.01804C15.4984 8.02294 15.1734 7.26289 14.5234 6.73789C13.8734 6.21289 13.0818 5.95039 12.1484 5.95039C11.1318 5.95039 10.2859 6.24206 9.61094 6.82539C8.93594 7.40872 8.4651 8.10039 8.19844 8.90039L10.3984 9.72539C10.5151 9.39206 10.6984 9.05872 10.9484 8.72539C11.1984 8.39206 11.5568 8.22539 12.0234 8.22539C12.3568 8.22539 12.6151 8.32956 12.7984 8.53789C12.9818 8.74622 13.0734 8.97539 13.0734 9.22539C13.0734 9.47539 12.9859 9.73372 12.8109 10.0004C12.6359 10.2671 12.4568 10.4754 12.2734 10.6254C11.6068 11.2421 11.1776 11.7462 10.9859 12.1379C10.7943 12.5296 10.6984 13.2004 10.6984 14.1504ZM11.9984 22.8504C10.4818 22.8504 9.06521 22.5664 7.74876 21.9983C6.4323 21.4302 5.28715 20.6593 4.31334 19.6855C3.33952 18.7117 2.56859 17.5665 2.00054 16.2501C1.43247 14.9336 1.14844 13.5171 1.14844 12.0004C1.14844 10.4837 1.43247 9.06717 2.00054 7.75072C2.56859 6.43425 3.33952 5.28911 4.31334 4.31529C5.28715 3.34147 6.4323 2.57054 7.74876 2.00249C9.06521 1.43442 10.4818 1.15039 11.9984 1.15039C13.5151 1.15039 14.9317 1.43442 16.2481 2.00249C17.5646 2.57054 18.7097 3.34147 19.6835 4.31529C20.6574 5.28911 21.4283 6.43425 21.9963 7.75072C22.5644 9.06717 22.8484 10.4837 22.8484 12.0004C22.8484 13.5171 22.5644 14.9336 21.9963 16.2501C21.4283 17.5665 20.6574 18.7117 19.6835 19.6855C18.7097 20.6593 17.5646 21.4302 16.2481 21.9983C14.9317 22.5664 13.5151 22.8504 11.9984 22.8504Z" fill="#018297"/>
</svg>
