<svg width="24" height="24" viewBox="0 0 30 30" fill="none" xmlns="http://www.w3.org/2000/svg">
<path d="M17.5 17.5039L17.5 26.2539H21.25C24.0132 26.2539 26.25 24.0171 26.25 21.2539V14.061C26.25 12.7232 25.7237 11.4513 24.7807 10.5303L18.5307 4.28025C16.5789 2.30657 13.4211 2.30657 11.4693 4.28025L5.2193 10.5303C4.27632 11.4513 3.75 12.7232 3.75 14.061L3.75 21.2539C3.75 24.0171 5.98684 26.2539 8.75 26.2539H12.5L12.5 17.5039C12.5 15.9469 13.443 15.0039 15 15.0039C16.557 15.0039 17.5 15.9469 17.5 17.5039ZM18.75 23.7539L11.25 23.7539V26.2539L18.75 26.2539V23.7539Z" fill="white"/>
</svg>
