<svg width="24" height="24" viewBox="0 0 24 24" fill="none" xmlns="http://www.w3.org/2000/svg">
<g clip-path="url(#clip0_2907_30431)">
<path d="M20 0H4C1.79 0 0 1.79 0 4V20C0 22.21 1.79 24 4 24H20C22.21 24 24 22.21 24 20V4C24 1.79 22.21 0 20 0ZM15.35 16.61C14.84 17.23 14.18 17.65 13.41 17.86C13.07 17.95 12.92 18.13 12.93 18.48C12.95 18.82 12.93 19.17 12.93 19.51C12.93 19.82 12.77 19.99 12.47 19.99C12.1 20 11.73 20 11.36 20C11.03 19.99 10.88 19.8 10.87 19.49V18.73C10.86 18.17 10.84 18.15 10.31 18.07C9.63 17.96 8.95 17.8 8.33 17.5C7.83 17.26 7.78 17.13 7.92 16.62C8.03 16.23 8.13 15.85 8.25 15.47C8.39 15.03 8.51 14.98 8.92 15.19C9.61 15.55 10.35 15.75 11.12 15.84C11.62 15.91 12.1 15.86 12.56 15.66C13.42 15.28 13.55 14.29 12.83 13.69C12.59 13.48 12.31 13.33 12.01 13.2C11.26 12.87 10.47 12.62 9.76 12.19C8.61 11.5 7.87 10.55 7.96 9.15C8.06 7.56 8.95 6.57 10.41 6.04C11.01 5.83 11.01 5.84 11.02 5.21C11.02 4.99 11.01 4.78 11.02 4.57C11.03 4.1 11.11 4.01 11.58 4H12.02C12.6867 4 13.0233 4.33333 13.03 5C13.03 5.71 13.03 5.72 13.74 5.83C14.28 5.91 14.79 6.07 15.3 6.29C15.57 6.41 15.68 6.61 15.59 6.9C15.46 7.33 15.35 7.77 15.21 8.19C15.07 8.6 14.95 8.66 14.56 8.47C13.77 8.1 12.95 7.94 12.08 7.98C11.86 8 11.64 8.03 11.43 8.12C10.68 8.45 10.56 9.27 11.19 9.78C11.52 10.04 11.89 10.22 12.27 10.38C12.93 10.66 13.6 10.92 14.23 11.27C16.23 12.38 16.77 14.89 15.35 16.61Z" fill="white"/>
</g>
<defs>
<clipPath id="clip0_2907_30431">
<rect width="24" height="24" fill="white"/>
</clipPath>
</defs>
</svg>
