<svg width="24" height="24" viewBox="0 0 24 24" fill="#FFFFFF66" xmlns="http://www.w3.org/2000/svg">
<path d="M20 0H4C1.79 0 0 1.79 0 4V20C0 22.21 1.79 24 4 24H20C22.21 24 24 22.21 24 20V4C24 1.79 22.21 0 20 0ZM8.44 17.68C8.44 18.21 8.01 18.65 7.47 18.65C6.93 18.65 6.5 18.21 6.5 17.68V9.26C6.5 8.73 6.93 8.29 7.47 8.29C8.01 8.29 8.44 8.73 8.44 9.26V17.68ZM12.97 17.68C12.97 18.21 12.54 18.65 12 18.65C11.46 18.65 11.03 18.21 11.03 17.68V13.15C11.03 12.61 11.46 12.18 12 12.18C12.54 12.18 12.97 12.61 12.97 13.15V17.68ZM17.5 17.68C17.5 18.21 17.07 18.65 16.53 18.65C15.99 18.65 15.56 18.21 15.56 17.68V7.32C15.56 6.79 15.99 6.35 16.53 6.35C17.07 6.35 17.5 6.79 17.5 7.32V17.68Z" fill="#FFFFFF66"/>
</svg>
