<svg width="40" height="40" viewBox="0 0 40 40" fill="none" xmlns="http://www.w3.org/2000/svg">
<path d="M3.99999 20C3.99999 10.9123 10.9123 3.99999 20 3.99999C29.0877 3.99999 35.9999 10.9123 35.9999 20C35.9999 29.0877 29.0877 35.9999 20 35.9999C10.9123 35.9999 3.99999 29.0877 3.99999 20ZM0 20C0 31.0526 8.94735 39.9999 20 39.9999C31.0526 39.9999 39.9999 31.0526 39.9999 20C39.9999 8.94735 31.0526 0 20 0C8.94735 0 0 8.94735 0 20ZM27.9999 16C27.9999 11.5789 24.421 7.99998 20 7.99998C15.5789 7.99998 12 11.5789 12 16C12 20.421 15.5789 23.9999 20 23.9999C24.421 23.9999 27.9999 20.421 27.9999 16ZM36.2806 31.614C33.4736 28.2456 27.1929 25.9999 20 25.9999C12.807 25.9999 6.5263 28.2456 3.71929 31.614C7.29823 36.6315 13.2631 39.9999 20 39.9999C26.7368 39.9999 32.7017 36.6315 36.2806 31.614Z" fill="white"/>
</svg>
