<svg width="24" height="24" viewBox="0 0 24 24" fill="none" xmlns="http://www.w3.org/2000/svg">
<g clip-path="url(#clip0_3833_19134)">
<path d="M21.1422 5.29424L19.6655 3.81753C19.0655 3.21665 18.252 2.87988 17.4031 2.87988H5.07993C3.8647 2.87988 2.87988 3.8647 2.87988 5.07993V19.8798C2.87988 21.0951 3.8647 22.0799 5.07993 22.0799H19.8798C21.0951 22.0799 22.0799 21.0951 22.0799 19.8798V7.55669C22.0799 6.70781 21.7431 5.89424 21.1422 5.29424ZM6.07983 7.87983V5.87988C6.07983 5.54868 6.34863 5.27988 6.67983 5.27988H15.0798C15.411 5.27988 15.6798 5.54868 15.6798 5.87988V7.87983C15.6798 8.21104 15.411 8.47983 15.0798 8.47983H6.67983C6.34863 8.47983 6.07983 8.21104 6.07983 7.87983ZM12.4799 18.8799C10.4919 18.8799 8.87988 17.2679 8.87988 15.2799C8.87988 13.2918 10.4919 11.6799 12.4799 11.6799C14.4678 11.6799 16.0799 13.2918 16.0799 15.2799C16.0799 17.2679 14.4678 18.8799 12.4799 18.8799Z" fill="#F1F1F1"/>
</g>
<defs>
<clipPath id="clip0_3833_19134">
<rect width="19.2" height="19.2" fill="white" transform="translate(2.87988 2.87988)"/>
</clipPath>
</defs>
</svg>
