<svg width="41" height="40" viewBox="0 0 41 40" fill="none" xmlns="http://www.w3.org/2000/svg">
<path d="M36.4542 6.8812L36.4547 6.8817C37.4279 7.85342 37.9734 9.17107 37.9734 10.5466V34.2088C37.9734 36.012 36.5123 37.4732 34.7091 37.4732H6.29107C4.48788 37.4732 3.02672 36.012 3.02672 34.2088V5.79083C3.02672 3.98763 4.48788 2.52648 6.29107 2.52648H29.9533C31.3288 2.52648 32.6465 3.07206 33.6182 4.04521L33.6187 4.0457L36.4542 6.8812ZM7.25096 7.32685V11.1671C7.25096 12.3333 8.19693 13.2792 9.36312 13.2792H25.4924C26.6586 13.2792 27.6045 12.3333 27.6045 11.1671V7.32685C27.6045 6.16066 26.6586 5.21469 25.4924 5.21469H9.36312C8.19693 5.21469 7.25096 6.16066 7.25096 7.32685ZM12.6275 25.3764C12.6275 29.7237 16.1527 33.249 20.5001 33.249C24.8475 33.249 28.3727 29.7237 28.3727 25.3764C28.3727 21.0287 24.8474 17.5037 20.5001 17.5037C16.1527 17.5037 12.6275 21.0287 12.6275 25.3764Z" stroke="#005568" stroke-width="1.92015"/>
</svg>
