<svg width="14" height="14" viewBox="0 0 14 14" fill="none" xmlns="http://www.w3.org/2000/svg">
<path d="M0.333984 7.22819C0.333984 10.9124 3.31644 13.8949 7.00065 13.8949C10.6849 13.8949 13.6673 10.9124 13.6673 7.22819C13.6673 3.54398 10.6849 0.561523 7.00065 0.561523C3.31644 0.561523 0.333984 3.54398 0.333984 7.22819ZM6.11176 4.78375C6.11176 4.29252 6.50942 3.89486 7.00065 3.89486C7.49188 3.89486 7.88954 4.29252 7.88954 4.78375C7.88954 5.27497 7.49188 5.67263 7.00065 5.67263C6.50942 5.67263 6.11176 5.27497 6.11176 4.78375ZM6.33398 9.89486V7.00597C6.33398 6.64339 6.63808 6.3393 7.00065 6.3393C7.36322 6.3393 7.66732 6.64339 7.66732 7.00597V9.89486C7.66732 10.2574 7.36322 10.5615 7.00065 10.5615C6.63808 10.5615 6.33398 10.2574 6.33398 9.89486Z" fill="#018297"/>
</svg>
